<svg width="2807" height="64" viewBox="0 0 2807 64" fill="none" xmlns="http://www.w3.org/2000/svg">
<path d="M0 11.4875V26.4911V64H401L401 11.5C364.91 24.7031 273.348 14.1548 232.079 11.4875C162.706 -9.31746 48.4542 2.81876 0 11.4875Z" fill="#E5EEF6"/>
<path d="M401 11.4875V26.4911V64H802V11.4875C765.91 24.6906 674.348 14.1548 633.079 11.4875C563.706 -9.31746 449.454 2.81876 401 11.4875Z" fill="#E5EEF6"/>
<path d="M802 11.4875V26.4911V64H1203L1203 11.5C1166.91 24.7031 1075.35 14.1548 1034.08 11.4875C964.706 -9.31746 850.454 2.81876 802 11.4875Z" fill="#E5EEF6"/>
<path d="M1203 11.4875V26.4911V64H1604L1604 11.5C1567.91 24.7031 1476.35 14.1548 1435.08 11.4875C1365.71 -9.31746 1251.45 2.81876 1203 11.4875Z" fill="#E5EEF6"/>
<path d="M1604 11.4875V26.4911V64H2005L2005 11.5C1968.91 24.7031 1877.35 14.1548 1836.08 11.4875C1766.71 -9.31746 1652.45 2.81876 1604 11.4875Z" fill="#E5EEF6"/>
<path d="M2005 11.4875V26.4911V64H2406L2406 11.5C2369.91 24.7031 2278.35 14.1548 2237.08 11.4875C2167.71 -9.31746 2053.45 2.81876 2005 11.4875Z" fill="#E5EEF6"/>
<path d="M2406 11.4875V26.4911V64H2807V2.98547C2770.91 16.1886 2679.35 14.1548 2638.08 11.4875C2568.71 -9.31746 2454.45 2.81876 2406 11.4875Z" fill="#E5EEF6"/>
</svg>
